<svg width="238" height="57" viewBox="0 0 238 57" fill="none" xmlns="http://www.w3.org/2000/svg">
<circle cx="28.5" cy="28.5" r="28.5" fill="white"/>
<path d="M74.88 40V15.052H91.728V19.768H80.496V24.664H90.468V29.272H80.496V35.284H92.556V40H74.88ZM109.448 25.312C110.456 23.608 111.416 21.904 112.328 20.2C113.24 18.496 114.08 16.78 114.848 15.052H121.04C119.672 17.74 118.256 20.344 116.792 22.864C115.328 25.384 113.78 27.916 112.148 30.46V40H106.532V30.532C104.9 27.988 103.34 25.444 101.852 22.9C100.388 20.356 98.9716 17.74 97.6036 15.052H104.12C104.888 16.78 105.716 18.496 106.604 20.2C107.492 21.904 108.44 23.608 109.448 25.312ZM127.344 40V15.052H144.192V19.768H132.96V24.664H142.932V29.272H132.96V35.284H145.02V40H127.344ZM152.416 40V15.052H169.12V19.768H158.032V24.988H167.896V29.704H158.032V40H152.416ZM176.328 15.052H181.944V40H176.328V15.052ZM198.267 14.764C202.011 14.764 204.879 15.436 206.871 16.78C208.863 18.1 209.859 20.164 209.859 22.972C209.859 24.724 209.451 26.152 208.635 27.256C207.843 28.336 206.691 29.188 205.179 29.812C205.683 30.436 206.211 31.156 206.763 31.972C207.315 32.764 207.855 33.604 208.383 34.492C208.935 35.356 209.463 36.268 209.967 37.228C210.471 38.164 210.939 39.088 211.371 40H205.071C204.615 39.184 204.147 38.356 203.667 37.516C203.211 36.676 202.731 35.86 202.227 35.068C201.747 34.276 201.267 33.532 200.787 32.836C200.307 32.116 199.827 31.468 199.347 30.892H196.575V40H190.959V15.412C192.183 15.172 193.443 15.004 194.739 14.908C196.059 14.812 197.235 14.764 198.267 14.764ZM198.591 19.552C198.183 19.552 197.811 19.564 197.475 19.588C197.163 19.612 196.863 19.636 196.575 19.66V26.428H198.159C200.271 26.428 201.783 26.164 202.695 25.636C203.607 25.108 204.063 24.208 204.063 22.936C204.063 21.712 203.595 20.848 202.659 20.344C201.747 19.816 200.391 19.552 198.591 19.552ZM218.211 40V15.052H235.059V19.768H223.827V24.664H233.799V29.272H223.827V35.284H235.887V40H218.211Z" fill="white"/>
<ellipse cx="28.4177" cy="28.5727" rx="22.2498" ry="22.2133" fill="white"/>
<path fill-rule="evenodd" clip-rule="evenodd" d="M43.448 33.9573L39.8406 37.2958C39.8861 37.4548 39.9133 37.6228 39.9133 37.8C39.9133 38.8083 39.0945 39.6259 38.0846 39.6259C37.0747 39.6259 36.2559 38.8083 36.2559 37.8C36.2559 36.7916 37.0747 35.974 38.0846 35.974C38.1983 35.974 38.3121 35.9877 38.4212 36.0058L42.6974 32.0497H50.3945C50.5719 30.9187 50.6675 29.7604 50.6675 28.5795C50.6675 27.0987 50.5174 25.6543 50.2444 24.2554H43.4981L37.9072 19.3181H24.6738C24.3417 19.6633 23.8777 19.8767 23.3591 19.8767C22.3492 19.8767 21.5304 19.0592 21.5304 18.0508C21.5304 17.0425 22.3492 16.2249 23.3591 16.2249C24.1415 16.2249 24.8103 16.72 25.0696 17.4104H38.6305L44.2214 22.3477H49.7713C47.0737 13.109 38.5395 6.35938 28.4223 6.35938C18.4188 6.35938 9.96194 12.95 7.15968 22.0206H12.2911L16.4126 18.3597C16.3944 18.2552 16.3807 18.1462 16.3807 18.0372C16.3807 17.0288 17.1996 16.2113 18.2095 16.2113C19.2194 16.2113 20.0382 17.0288 20.0382 18.0372C20.0382 19.0455 19.2194 19.8631 18.2095 19.8631C18.0275 19.8631 17.8501 19.8359 17.6818 19.7859L13.0144 23.9329H6.65927C6.34084 25.4272 6.16797 26.9806 6.16797 28.5704C6.16797 38.6902 12.9507 47.2249 22.2218 49.9048V42.5919L13.8878 34.7886C13.7696 34.8113 13.6422 34.8249 13.5148 34.8249C12.5049 34.8249 11.6861 34.0073 11.6861 32.999C11.6861 31.9906 12.5049 31.173 13.5148 31.173C14.5247 31.173 15.3435 31.9906 15.3435 32.999C15.3435 33.1625 15.3208 33.3214 15.2799 33.4713L24.137 41.7653V50.3726C25.5199 50.6406 26.9484 50.7859 28.4132 50.7859C29.6232 50.7859 30.8151 50.686 31.9751 50.4998L32.0616 44.0863C31.543 43.7638 31.1972 43.1915 31.1972 42.5329C31.1972 41.5245 32.0161 40.7069 33.026 40.7069C34.0359 40.7069 34.8547 41.5245 34.8547 42.5329C34.8547 43.1915 34.5044 43.7683 33.9767 44.0908L33.904 50.1001C41.8149 48.097 48.0381 41.8652 50.0079 33.9528H43.448V33.9573ZM28.439 34.0886C25.3762 34.0886 22.8934 31.6096 22.8934 28.5516C22.8934 25.4936 25.3762 23.0146 28.439 23.0146C31.5017 23.0146 33.9845 25.4936 33.9845 28.5516C33.9845 31.6096 31.5017 34.0886 28.439 34.0886Z" fill="black"/>
<path fill-rule="evenodd" clip-rule="evenodd" d="M43.448 33.9573L39.8406 37.2958C39.8861 37.4548 39.9133 37.6228 39.9133 37.8C39.9133 38.8083 39.0945 39.6259 38.0846 39.6259C37.0747 39.6259 36.2559 38.8083 36.2559 37.8C36.2559 36.7916 37.0747 35.974 38.0846 35.974C38.1983 35.974 38.3121 35.9877 38.4212 36.0058L42.6974 32.0497H50.3945C50.5719 30.9187 50.6675 29.7604 50.6675 28.5795C50.6675 27.0987 50.5174 25.6543 50.2444 24.2554H43.4981L37.9072 19.3181H24.6738C24.3417 19.6633 23.8777 19.8767 23.3591 19.8767C22.3492 19.8767 21.5304 19.0592 21.5304 18.0508C21.5304 17.0425 22.3492 16.2249 23.3591 16.2249C24.1415 16.2249 24.8103 16.72 25.0696 17.4104H38.6305L44.2214 22.3477H49.7713C47.0737 13.109 38.5395 6.35938 28.4223 6.35938C18.4188 6.35938 9.96194 12.95 7.15968 22.0206H12.2911L16.4126 18.3597C16.3944 18.2552 16.3807 18.1462 16.3807 18.0372C16.3807 17.0288 17.1996 16.2113 18.2095 16.2113C19.2194 16.2113 20.0382 17.0288 20.0382 18.0372C20.0382 19.0455 19.2194 19.8631 18.2095 19.8631C18.0275 19.8631 17.8501 19.8359 17.6818 19.7859L13.0144 23.9329H6.65927C6.34084 25.4272 6.16797 26.9806 6.16797 28.5704C6.16797 38.6902 12.9507 47.2249 22.2218 49.9048V42.5919L13.8878 34.7886C13.7696 34.8113 13.6422 34.8249 13.5148 34.8249C12.5049 34.8249 11.6861 34.0073 11.6861 32.999C11.6861 31.9906 12.5049 31.173 13.5148 31.173C14.5247 31.173 15.3435 31.9906 15.3435 32.999C15.3435 33.1625 15.3208 33.3214 15.2799 33.4713L24.137 41.7653V50.3726C25.5199 50.6406 26.9484 50.7859 28.4132 50.7859C29.6232 50.7859 30.8151 50.686 31.9751 50.4998L32.0616 44.0863C31.543 43.7638 31.1972 43.1915 31.1972 42.5329C31.1972 41.5245 32.0161 40.7069 33.026 40.7069C34.0359 40.7069 34.8547 41.5245 34.8547 42.5329C34.8547 43.1915 34.5044 43.7683 33.9767 44.0908L33.904 50.1001C41.8149 48.097 48.0381 41.8652 50.0079 33.9528H43.448V33.9573ZM28.439 34.0886C25.3762 34.0886 22.8934 31.6096 22.8934 28.5516C22.8934 25.4936 25.3762 23.0146 28.439 23.0146C31.5017 23.0146 33.9845 25.4936 33.9845 28.5516C33.9845 31.6096 31.5017 34.0886 28.439 34.0886Z" fill="url(#paint0_radial_424_42241)"/>
<path d="M4.02344 13.8964C6.50475 9.73606 10.0055 6.27682 14.1952 3.84535C18.3849 1.41388 23.1252 0.0904401 27.9685 0L28.0158 2.53386C23.6032 2.61626 19.2844 3.82202 15.4673 6.03727C11.6502 8.25253 8.46069 11.4042 6.20002 15.1946L4.02344 13.8964Z" fill="#FF0000"/>
<path d="M52.8935 43.2326C50.3882 47.3785 46.8675 50.8175 42.6638 53.2247C38.4602 55.632 33.7123 56.928 28.8686 56.9905L28.8359 54.4564C33.2489 54.3995 37.5746 53.2187 41.4044 51.0255C45.2343 48.8323 48.4419 45.6992 50.7244 41.9219L52.8935 43.2326Z" fill="#FF0000"/>
<path d="M30.854 0.09375C35.4665 0.476225 39.9166 1.97633 43.8194 4.46439C47.7222 6.95246 50.9603 10.3536 53.2538 14.3738C55.5473 18.394 56.8271 22.9123 56.9827 27.5381C57.1383 32.1639 56.165 36.758 54.1469 40.9233L51.8661 39.8182C53.7048 36.0234 54.5916 31.8378 54.4499 27.6233C54.3081 23.4089 53.142 19.2923 51.0525 15.6296C48.9629 11.9669 46.0128 8.8682 42.457 6.60138C38.9013 4.33457 34.847 2.96785 30.6445 2.61939L30.854 0.09375Z" fill="#FF0000"/>
<path d="M26.3183 56.9131C21.7035 56.5588 17.2444 55.0859 13.3265 52.6217C9.40858 50.1575 6.14977 46.7762 3.83177 42.7701C1.51378 38.7639 0.206343 34.2535 0.0224953 29.6288C-0.161352 25.004 0.783919 20.4041 2.77659 16.2266L5.064 17.3177C3.24852 21.1237 2.3873 25.3146 2.5548 29.5281C2.7223 33.7416 3.91347 37.8509 6.02535 41.5008C8.13722 45.1507 11.1062 48.2314 14.6758 50.4764C18.2453 52.7215 22.3079 54.0634 26.5123 54.3862L26.3183 56.9131Z" fill="#FF0000"/>
<defs>
<radialGradient id="paint0_radial_424_42241" cx="0" cy="0" r="1" gradientUnits="userSpaceOnUse" gradientTransform="translate(28.4198 28.577) rotate(-155.486) scale(24.4563 24.4342)">
<stop offset="0.0104167" stop-color="#00FFFC"/>
<stop offset="0.208333" stop-color="#0464AC"/>
<stop offset="0.5" stop-color="#0B3471"/>
<stop offset="0.864583" stop-color="#EC2828"/>
<stop offset="0.994792" stop-color="#FF0000"/>
</radialGradient>
</defs>
</svg>
